<svg width="93" height="23" viewBox="0 0 93 23" fill="none"
  xmlns="http://www.w3.org/2000/svg">
  <path d="M0.36 18V17.316C0.588 17.184 0.828 17.07 1.08 16.974C1.344 16.878 1.596 16.818 1.836 16.794V6.606C1.596 6.558 1.344 6.492 1.08 6.408C0.816 6.312 0.576 6.204 0.36 6.084V5.4H3.258C3.714 5.4 4.146 5.382 4.554 5.346C4.962 5.31 5.43 5.292 5.958 5.292C6.534 5.292 7.092 5.334 7.632 5.418C8.172 5.502 8.652 5.652 9.072 5.868C9.492 6.084 9.828 6.39 10.08 6.786C10.332 7.17 10.458 7.668 10.458 8.28C10.458 8.664 10.386 9.024 10.242 9.36C10.11 9.684 9.918 9.972 9.666 10.224C9.426 10.476 9.138 10.686 8.802 10.854C8.478 11.022 8.124 11.142 7.74 11.214V11.286C8.124 11.334 8.508 11.424 8.892 11.556C9.288 11.688 9.642 11.88 9.954 12.132C10.266 12.384 10.518 12.702 10.71 13.086C10.914 13.458 11.016 13.902 11.016 14.418C11.016 15.066 10.872 15.624 10.584 16.092C10.296 16.56 9.906 16.944 9.414 17.244C8.934 17.544 8.382 17.766 7.758 17.91C7.134 18.042 6.486 18.108 5.814 18.108C5.562 18.108 5.286 18.102 4.986 18.09C4.686 18.078 4.386 18.066 4.086 18.054C3.786 18.042 3.492 18.03 3.204 18.018C2.928 18.006 2.694 18 2.502 18H0.36ZM5.796 16.938C6.552 16.938 7.146 16.716 7.578 16.272C8.01 15.816 8.226 15.216 8.226 14.472C8.226 14.016 8.154 13.644 8.01 13.356C7.866 13.056 7.668 12.822 7.416 12.654C7.164 12.474 6.864 12.354 6.516 12.294C6.168 12.222 5.79 12.186 5.382 12.186H4.428V16.812C4.596 16.848 4.77 16.878 4.95 16.902C5.142 16.926 5.424 16.938 5.796 16.938ZM5.004 11.016C5.208 11.016 5.412 11.01 5.616 10.998C5.82 10.974 6.012 10.95 6.192 10.926C6.66 10.734 7.038 10.44 7.326 10.044C7.614 9.636 7.758 9.174 7.758 8.658C7.758 7.902 7.56 7.35 7.164 7.002C6.768 6.642 6.258 6.462 5.634 6.462C5.37 6.462 5.142 6.468 4.95 6.48C4.758 6.492 4.584 6.51 4.428 6.534V11.016H5.004ZM20.4375 16.488C20.3415 16.692 20.1855 16.902 19.9695 17.118C19.7655 17.322 19.5075 17.508 19.1955 17.676C18.8955 17.832 18.5415 17.958 18.1335 18.054C17.7375 18.162 17.3055 18.216 16.8375 18.216C16.0935 18.216 15.4335 18.108 14.8575 17.892C14.2815 17.664 13.8015 17.346 13.4175 16.938C13.0335 16.518 12.7395 16.02 12.5355 15.444C12.3435 14.868 12.2475 14.22 12.2475 13.5C12.2475 11.964 12.6495 10.794 13.4535 9.99C14.2575 9.186 15.3735 8.784 16.8015 8.784C17.4135 8.784 17.9835 8.868 18.5115 9.036C19.0515 9.204 19.4955 9.48 19.8435 9.864C20.2035 10.248 20.4495 10.752 20.5815 11.376C20.7255 12 20.7195 12.762 20.5635 13.662H15.0375C15.0495 14.61 15.2895 15.366 15.7575 15.93C16.2375 16.494 16.9395 16.776 17.8635 16.776C18.2595 16.776 18.6675 16.716 19.0875 16.596C19.5195 16.476 19.8555 16.32 20.0955 16.128L20.4375 16.488ZM16.7295 9.81C16.4895 9.81 16.2735 9.852 16.0815 9.936C15.9015 10.02 15.7395 10.176 15.5955 10.404C15.4635 10.62 15.3555 10.92 15.2715 11.304C15.1875 11.676 15.1275 12.15 15.0915 12.726H17.9895C18.0735 11.79 18.0195 11.07 17.8275 10.566C17.6355 10.062 17.2695 9.81 16.7295 9.81ZM32.7334 18H27.9634V17.298C28.1194 17.214 28.2694 17.142 28.4134 17.082C28.5694 17.01 28.7494 16.938 28.9534 16.866V12.636C28.9534 11.88 28.8454 11.292 28.6294 10.872C28.4134 10.44 28.0294 10.224 27.4774 10.224C27.0214 10.224 26.6254 10.374 26.2894 10.674C25.9654 10.962 25.7194 11.358 25.5514 11.862V16.866C25.7434 16.914 25.9114 16.974 26.0554 17.046C26.2114 17.106 26.3734 17.19 26.5414 17.298V18H21.7714V17.298C22.0714 17.142 22.4674 16.998 22.9594 16.866V10.278L21.7714 10.134V9.432C21.9274 9.36 22.1314 9.294 22.3834 9.234C22.6354 9.162 22.9054 9.096 23.1934 9.036C23.4934 8.976 23.7934 8.928 24.0934 8.892C24.4054 8.844 24.6874 8.808 24.9394 8.784H25.5514V10.638H25.5694C25.8214 10.134 26.1994 9.702 26.7034 9.342C27.2074 8.97 27.8194 8.784 28.5394 8.784C29.0074 8.784 29.4274 8.844 29.7994 8.964C30.1714 9.072 30.4834 9.27 30.7354 9.558C30.9994 9.846 31.1974 10.236 31.3294 10.728C31.4734 11.208 31.5454 11.82 31.5454 12.564V16.866C32.0254 16.95 32.4214 17.094 32.7334 17.298V18ZM47.513 14.22H48.251C48.299 14.412 48.341 14.646 48.377 14.922C48.425 15.186 48.461 15.474 48.485 15.786C48.521 16.086 48.545 16.386 48.557 16.686C48.569 16.986 48.575 17.256 48.575 17.496C48.155 17.76 47.627 17.946 46.991 18.054C46.367 18.162 45.725 18.216 45.065 18.216C44.069 18.216 43.163 18.096 42.347 17.856C41.543 17.604 40.853 17.214 40.277 16.686C39.713 16.146 39.275 15.468 38.963 14.652C38.651 13.824 38.495 12.834 38.495 11.682C38.495 10.542 38.663 9.564 38.999 8.748C39.347 7.92 39.809 7.242 40.385 6.714C40.961 6.186 41.627 5.802 42.383 5.562C43.151 5.31 43.955 5.184 44.795 5.184C45.587 5.184 46.301 5.244 46.937 5.364C47.585 5.472 48.113 5.622 48.521 5.814C48.521 6.006 48.509 6.252 48.485 6.552C48.473 6.852 48.443 7.17 48.395 7.506C48.359 7.83 48.311 8.154 48.251 8.478C48.203 8.79 48.155 9.054 48.107 9.27H47.351L46.361 6.552C46.253 6.492 46.079 6.444 45.839 6.408C45.599 6.372 45.353 6.354 45.101 6.354C44.609 6.354 44.147 6.456 43.715 6.66C43.283 6.852 42.899 7.164 42.563 7.596C42.227 8.028 41.963 8.586 41.771 9.27C41.579 9.942 41.483 10.752 41.483 11.7C41.483 13.416 41.825 14.736 42.509 15.66C43.193 16.584 44.123 17.046 45.299 17.046C45.635 17.046 45.917 17.022 46.145 16.974C46.385 16.914 46.547 16.836 46.631 16.74L47.513 14.22ZM60.8392 18H56.0692V17.298C56.2132 17.214 56.3632 17.136 56.5192 17.064C56.6752 16.992 56.8552 16.926 57.0592 16.866V13.23C57.0592 12.198 56.9572 11.442 56.7532 10.962C56.5612 10.47 56.1772 10.224 55.6012 10.224C55.1212 10.224 54.7132 10.392 54.3772 10.728C54.0412 11.052 53.8012 11.43 53.6572 11.862V16.866C53.8492 16.914 54.0172 16.968 54.1612 17.028C54.3172 17.088 54.4792 17.178 54.6472 17.298V18H49.8772V17.298C50.2492 17.106 50.6452 16.962 51.0652 16.866V5.958L49.6972 5.814V5.112C49.8772 5.04 50.1052 4.968 50.3812 4.896C50.6692 4.824 50.9692 4.764 51.2812 4.716C51.5932 4.656 51.9052 4.608 52.2172 4.572C52.5292 4.524 52.8052 4.488 53.0452 4.464H53.6572V10.818H53.6752C53.7952 10.542 53.9572 10.284 54.1612 10.044C54.3652 9.792 54.5932 9.576 54.8452 9.396C55.1092 9.204 55.3912 9.054 55.6912 8.946C55.9912 8.838 56.3092 8.784 56.6452 8.784C57.1252 8.784 57.5512 8.844 57.9232 8.964C58.3072 9.072 58.6252 9.27 58.8772 9.558C59.1292 9.846 59.3212 10.236 59.4532 10.728C59.5852 11.208 59.6512 11.82 59.6512 12.564V16.866C59.8552 16.914 60.0592 16.968 60.2632 17.028C60.4672 17.088 60.6592 17.178 60.8392 17.298V18ZM69.7968 16.488C69.7008 16.692 69.5448 16.902 69.3288 17.118C69.1248 17.322 68.8668 17.508 68.5548 17.676C68.2548 17.832 67.9008 17.958 67.4928 18.054C67.0968 18.162 66.6648 18.216 66.1968 18.216C65.4528 18.216 64.7928 18.108 64.2168 17.892C63.6408 17.664 63.1608 17.346 62.7768 16.938C62.3928 16.518 62.0988 16.02 61.8948 15.444C61.7028 14.868 61.6068 14.22 61.6068 13.5C61.6068 11.964 62.0088 10.794 62.8128 9.99C63.6168 9.186 64.7328 8.784 66.1608 8.784C66.7728 8.784 67.3428 8.868 67.8708 9.036C68.4108 9.204 68.8548 9.48 69.2028 9.864C69.5628 10.248 69.8088 10.752 69.9408 11.376C70.0848 12 70.0788 12.762 69.9228 13.662H64.3968C64.4088 14.61 64.6488 15.366 65.1168 15.93C65.5968 16.494 66.2988 16.776 67.2228 16.776C67.6188 16.776 68.0268 16.716 68.4468 16.596C68.8788 16.476 69.2148 16.32 69.4548 16.128L69.7968 16.488ZM66.0888 9.81C65.8488 9.81 65.6328 9.852 65.4408 9.936C65.2608 10.02 65.0988 10.176 64.9548 10.404C64.8228 10.62 64.7148 10.92 64.6308 11.304C64.5468 11.676 64.4868 12.15 64.4508 12.726H67.3488C67.4328 11.79 67.3788 11.07 67.1868 10.566C66.9948 10.062 66.6288 9.81 66.0888 9.81ZM79.1768 15.39C79.1768 15.654 79.1768 15.882 79.1768 16.074C79.1888 16.266 79.2068 16.47 79.2308 16.686L80.4728 16.866V17.496C80.3288 17.568 80.1308 17.64 79.8788 17.712C79.6388 17.784 79.3808 17.856 79.1048 17.928C78.8408 17.988 78.5768 18.036 78.3128 18.072C78.0488 18.12 77.8148 18.156 77.6108 18.18H76.9988C76.8788 17.904 76.8068 17.628 76.7828 17.352C76.7588 17.076 76.7408 16.74 76.7288 16.344H76.6388C76.5788 16.584 76.4768 16.818 76.3328 17.046C76.1888 17.262 76.0028 17.46 75.7748 17.64C75.5588 17.808 75.3008 17.946 75.0008 18.054C74.7008 18.162 74.3648 18.216 73.9928 18.216C73.5968 18.216 73.2308 18.156 72.8948 18.036C72.5588 17.916 72.2648 17.748 72.0128 17.532C71.7608 17.316 71.5628 17.058 71.4188 16.758C71.2748 16.446 71.2028 16.098 71.2028 15.714C71.2028 15.174 71.3048 14.73 71.5088 14.382C71.7128 14.034 72.0308 13.752 72.4628 13.536C72.9068 13.308 73.4708 13.14 74.1548 13.032C74.8508 12.924 75.6908 12.846 76.6748 12.798C76.7708 11.766 76.7288 11.01 76.5488 10.53C76.3688 10.05 75.9788 9.81 75.3788 9.81C75.0068 9.81 74.6648 9.87 74.3528 9.99L73.5068 12.15H72.7148C72.6188 12.006 72.5228 11.844 72.4268 11.664C72.3428 11.472 72.2588 11.274 72.1748 11.07C72.1028 10.854 72.0368 10.638 71.9768 10.422C71.9288 10.206 71.8928 9.996 71.8688 9.792C72.3248 9.48 72.9128 9.234 73.6328 9.054C74.3528 8.874 75.1148 8.784 75.9188 8.784C76.6028 8.784 77.1608 8.862 77.5928 9.018C78.0248 9.162 78.3608 9.366 78.6008 9.63C78.8528 9.882 79.0268 10.182 79.1228 10.53C79.2188 10.878 79.2668 11.25 79.2668 11.646C79.2668 12.366 79.2488 13.02 79.2128 13.608C79.1888 14.184 79.1768 14.778 79.1768 15.39ZM75.1268 16.776C75.3788 16.776 75.5948 16.728 75.7748 16.632C75.9548 16.536 76.1048 16.422 76.2248 16.29C76.3568 16.158 76.4528 16.014 76.5128 15.858C76.5848 15.702 76.6388 15.564 76.6748 15.444V13.644C76.1108 13.656 75.6488 13.692 75.2888 13.752C74.9288 13.812 74.6468 13.914 74.4428 14.058C74.2388 14.19 74.0948 14.364 74.0108 14.58C73.9388 14.784 73.9028 15.036 73.9028 15.336C73.9028 15.792 74.0108 16.146 74.2268 16.398C74.4428 16.65 74.7428 16.776 75.1268 16.776ZM92.0403 18H87.2703V17.298C87.4143 17.214 87.5643 17.136 87.7203 17.064C87.8763 16.992 88.0563 16.926 88.2603 16.866V13.23C88.2603 12.198 88.1583 11.442 87.9543 10.962C87.7623 10.47 87.3783 10.224 86.8023 10.224C86.3223 10.224 85.9143 10.392 85.5783 10.728C85.2423 11.052 85.0023 11.43 84.8583 11.862V16.866C85.0503 16.914 85.2183 16.968 85.3623 17.028C85.5183 17.088 85.6803 17.178 85.8483 17.298V18H81.0783V17.298C81.4503 17.106 81.8463 16.962 82.2663 16.866V5.958L80.8983 5.814V5.112C81.0783 5.04 81.3063 4.968 81.5823 4.896C81.8703 4.824 82.1703 4.764 82.4823 4.716C82.7943 4.656 83.1063 4.608 83.4183 4.572C83.7303 4.524 84.0063 4.488 84.2463 4.464H84.8583V10.818H84.8763C84.9963 10.542 85.1583 10.284 85.3623 10.044C85.5663 9.792 85.7943 9.576 86.0463 9.396C86.3103 9.204 86.5923 9.054 86.8923 8.946C87.1923 8.838 87.5103 8.784 87.8463 8.784C88.3263 8.784 88.7523 8.844 89.1243 8.964C89.5083 9.072 89.8263 9.27 90.0783 9.558C90.3303 9.846 90.5223 10.236 90.6543 10.728C90.7863 11.208 90.8523 11.82 90.8523 12.564V16.866C91.0563 16.914 91.2603 16.968 91.4643 17.028C91.6683 17.088 91.8603 17.178 92.0403 17.298V18Z" />
</svg>
